<?xml version="1.0" encoding="UTF-8"?>
<svg width="20" height="14" viewBox="0 0 512 336" xmlns="http://www.w3.org/2000/svg">
  <rect width="512" height="336" fill="#229e45"/>
  <path fill="#f8e509" d="M256 19.2L496 168L256 316.8L16 168L256 19.2z"/>
  <circle cx="256" cy="168" r="62.4" fill="#2b49a3" stroke="#fff" stroke-width="4"/>
  <path fill="#fff" d="M219.2 168a36.8 36.8 0 1 0 73.6 0a36.8 36.8 0 1 0-73.6 0"/>
  <path fill="#fff" d="M256 154.4c-13.6 0-26.4 2.4-32.8 4.8c-3.2 1.6-3.2 4 0 5.6c6.4 2.4 19.2 4.8 32.8 4.8s26.4-2.4 32.8-4.8c3.2-1.6 3.2-4 0-5.6c-6.4-2.4-19.2-4.8-32.8-4.8z"/>
</svg>